<?xml version="1.0" encoding="UTF-8"?>
<svg version="1.1" xmlns="http://www.w3.org/2000/svg" width="560" height="96">
<path d="M0 0 C1.31653564 0.01135986 1.31653564 0.01135986 2.65966797 0.02294922 C9.45144448 0.1952272 15.06562583 1.23369297 21.125 4.4375 C21.98222656 4.87320312 22.83945313 5.30890625 23.72265625 5.7578125 C36.08766834 12.58374678 43.23004062 22.68856753 47.52075195 36.01293945 C48.54203578 40.11086661 48.61362209 44.10669413 48.5625 48.3125 C48.55492676 49.19019043 48.54735352 50.06788086 48.53955078 50.97216797 C48.3672728 57.76394448 47.32880703 63.37812583 44.125 69.4375 C43.47144531 70.72333984 43.47144531 70.72333984 42.8046875 72.03515625 C35.97875322 84.40016834 25.87393247 91.54254062 12.54956055 95.83325195 C8.45163339 96.85453578 4.45580587 96.92612209 0.25 96.875 C-0.62769043 96.86742676 -1.50538086 96.85985352 -2.40966797 96.85205078 C-9.20144448 96.6797728 -14.81562583 95.64130703 -20.875 92.4375 C-22.16083984 91.78394531 -22.16083984 91.78394531 -23.47265625 91.1171875 C-35.83766834 84.29125322 -42.98004062 74.18643247 -47.27075195 60.86206055 C-48.29203578 56.76413339 -48.36362209 52.76830587 -48.3125 48.5625 C-48.30492676 47.68480957 -48.29735352 46.80711914 -48.28955078 45.90283203 C-48.1172728 39.11105552 -47.07880703 33.49687417 -43.875 27.4375 C-43.43929687 26.58027344 -43.00359375 25.72304688 -42.5546875 24.83984375 C-35.72875322 12.47483166 -25.62393247 5.33245938 -12.29956055 1.04174805 C-8.20163339 0.02046422 -4.20580587 -0.05112209 0 0 Z " fill="#267AF2" transform="translate(47.875,-0.4375)"/>
<path d="M0 0 C2.04049422 1.2704964 4.05017465 2.59431196 6 4 C10.12889351 4.44290923 10.12889351 4.44290923 12.8125 1.5 C15.31318613 -0.71723304 15.9719591 -0.99599416 19.5 -1.5 C24.36101848 -0.80556879 27.58952288 0.40145926 30.875 4.125 C32.79858847 9.04083721 32.66036758 14.01889727 31 19 C32.03125 19.061875 33.0625 19.12375 34.125 19.1875 C39.09124179 20.22880876 40.67025375 21.18297381 44 25 C45.01931872 29.46515722 44.36332273 34.09537983 42 38 C39.83285252 40.2365389 37.61727046 42.30372895 35 44 C34.01 44 33.02 44 32 44 C32.33 44.66 32.66 45.32 33 46 C33.47940682 52.11243698 32.43523808 57.0777143 28.4375 61.875 C26.40843334 63.46296521 24.99896096 64.0001774 22.4375 64.4375 C17.99616565 63.87223926 15.68640777 61.87679768 12.24609375 59.1171875 C9.99137961 57.68615424 9.99137961 57.68615424 7.33203125 58.71875 C4.9761341 59.88989657 4.9761341 59.88989657 3.25 61.625 C-0.34186272 63.82002722 -3.91530249 63.78046899 -8 63 C-11.68956401 60.25245233 -13.97603253 57.50545689 -15 53 C-14.85671812 49.96549454 -14.48330556 46.99780072 -14 44 C-15.051875 43.9071875 -15.051875 43.9071875 -16.125 43.8125 C-20.07821304 42.69528762 -21.99713289 40.79812617 -25 38 C-26.85962086 34.28075827 -26.57398707 30.04979769 -26 26 C-23.50712293 22.6761639 -20.91961121 20.43719078 -17 19 C-16.01 19 -15.02 19 -14 19 C-14.33 18.01 -14.66 17.02 -15 16 C-16.1136489 6.10403131 -16.1136489 6.10403131 -13.9765625 2.06640625 C-9.82391927 -1.98299447 -5.14078754 -1.56900158 0 0 Z " fill="#E6F8FE" transform="translate(39,17)"/>
<path d="M0 0 C2.33277262 1.4647642 4.54525541 2.95722552 6.6875 4.6875 C8.0796875 3.4809375 8.0796875 3.4809375 9.5 2.25 C13.55842199 -1.26729906 17.19588571 -1.60794756 22.41015625 -1.5234375 C27.28291469 -1.07210138 30.37335024 1.1065507 33.5 4.6875 C36.69863654 9.07420154 36.80833193 12.01698782 36.78515625 17.32421875 C36.78032227 19.27231445 36.78032227 19.27231445 36.77539062 21.25976562 C36.76703531 22.63151108 36.75857037 24.00325587 36.75 25.375 C36.74498335 26.75846195 36.74042073 28.14192563 36.73632812 29.52539062 C36.72452529 32.91280395 36.70806019 36.30013033 36.6875 39.6875 C33.0575 39.6875 29.4275 39.6875 25.6875 39.6875 C25.67348145 38.53749512 25.67348145 38.53749512 25.65917969 37.36425781 C25.60547227 33.88801897 25.52182424 30.41312526 25.4375 26.9375 C25.42332031 25.7309375 25.40914062 24.524375 25.39453125 23.28125 C25.36230469 22.12109375 25.33007812 20.9609375 25.296875 19.765625 C25.27592773 18.69731445 25.25498047 17.62900391 25.23339844 16.52832031 C24.55991379 13.02354956 23.51439022 11.81430208 20.6875 9.6875 C16.28546571 9.22412797 14.4080836 9.20711093 10.6875 11.6875 C9.65035478 14.79893567 9.48718139 17.18218096 9.37109375 20.44921875 C9.30825195 22.12661133 9.30825195 22.12661133 9.24414062 23.83789062 C9.20482422 25.00513672 9.16550781 26.17238281 9.125 27.375 C9.06022461 29.14327148 9.06022461 29.14327148 8.99414062 30.94726562 C8.88798906 33.86053626 8.78723371 36.7740026 8.6875 39.6875 C5.0575 39.6875 1.4275 39.6875 -2.3125 39.6875 C-2.32708252 38.92083008 -2.34166504 38.15416016 -2.35668945 37.36425781 C-2.4311922 33.88816507 -2.52784646 30.41303032 -2.625 26.9375 C-2.64755859 25.7309375 -2.67011719 24.524375 -2.69335938 23.28125 C-2.72880859 22.12109375 -2.76425781 20.9609375 -2.80078125 19.765625 C-2.82696533 18.69731445 -2.85314941 17.62900391 -2.88012695 16.52832031 C-3.3595391 13.37843902 -4.11886119 11.9637078 -6.3125 9.6875 C-8.25306541 9.13311629 -8.25306541 9.13311629 -10.3125 9.3125 C-10.993125 9.32539062 -11.67375 9.33828125 -12.375 9.3515625 C-14.63189935 9.60836647 -14.63189935 9.60836647 -17.3125 11.6875 C-18.34964522 14.79893567 -18.51281861 17.18218096 -18.62890625 20.44921875 C-18.67080078 21.56748047 -18.71269531 22.68574219 -18.75585938 23.83789062 C-18.79517578 25.00513672 -18.83449219 26.17238281 -18.875 27.375 C-18.91818359 28.55384766 -18.96136719 29.73269531 -19.00585938 30.94726562 C-19.11201094 33.86053626 -19.21276629 36.7740026 -19.3125 39.6875 C-22.9425 39.6875 -26.5725 39.6875 -30.3125 39.6875 C-30.3125 26.4875 -30.3125 13.2875 -30.3125 -0.3125 C-26.6825 -0.3125 -23.0525 -0.3125 -19.3125 -0.3125 C-18.9825 0.3475 -18.6525 1.0075 -18.3125 1.6875 C-17.508125 1.1925 -16.70375 0.6975 -15.875 0.1875 C-10.3190337 -2.15185423 -5.61175479 -2.22352548 0 0 Z " fill="#2779EF" transform="translate(517.3125,32.3125)"/>
<path d="M0 0 C5.81965168 2.65021312 9.20659833 6.42163719 11.7890625 12.26953125 C13.43549836 20.07682389 12.90179852 26.48117701 8.9765625 33.51953125 C6.0080279 37.25140332 3.33949292 39.75272111 -1.2109375 41.26953125 C-3.4453125 41.5078125 -3.4453125 41.5078125 -5.9609375 41.58203125 C-7.19070312 41.63810547 -7.19070312 41.63810547 -8.4453125 41.6953125 C-11.2109375 41.26953125 -11.2109375 41.26953125 -18.2109375 37.26953125 C-18.5409375 44.52953125 -18.8709375 51.78953125 -19.2109375 59.26953125 C-22.8409375 59.26953125 -26.4709375 59.26953125 -30.2109375 59.26953125 C-30.2109375 39.79953125 -30.2109375 20.32953125 -30.2109375 0.26953125 C-26.5809375 0.26953125 -22.9509375 0.26953125 -19.2109375 0.26953125 C-18.8809375 1.25953125 -18.5509375 2.24953125 -18.2109375 3.26953125 C-17.2415625 2.60953125 -16.2721875 1.94953125 -15.2734375 1.26953125 C-10.2478887 -1.56747211 -5.47022222 -1.80729957 0 0 Z M-17.04296875 12.58203125 C-19.31802395 15.86906753 -19.52028795 19.36484109 -19.2109375 23.26953125 C-17.71925136 27.37166814 -16.85491437 28.84021334 -13.2109375 31.26953125 C-7.39145413 31.85023652 -7.39145413 31.85023652 -2.2734375 29.39453125 C1.30655383 25.70605533 1.11788685 22.71632072 1.08203125 17.75390625 C0.67444123 14.29754291 -0.67370252 12.58289256 -3.2109375 10.26953125 C-8.21211089 7.76894456 -13.02801013 8.79311588 -17.04296875 12.58203125 Z " fill="#2679F0" transform="translate(235.2109375,31.73046875)"/>
<path d="M0 0 C2.04049422 1.2704964 4.05017465 2.59431196 6 4 C10.12889351 4.44290923 10.12889351 4.44290923 12.8125 1.5 C15.31318613 -0.71723304 15.9719591 -0.99599416 19.5 -1.5 C24.36101848 -0.80556879 27.58952288 0.40145926 30.875 4.125 C32.79858847 9.04083721 32.66036758 14.01889727 31 19 C32.0725 19.103125 33.145 19.20625 34.25 19.3125 C37.84934684 19.97238025 39.50003675 20.40003822 42 23 C42 23.99 42 24.98 42 26 C41.443125 25.855625 40.88625 25.71125 40.3125 25.5625 C35.05863683 24.28453328 30.40291471 23.80353037 25 24 C24.67 22.35 24.34 20.7 24 19 C24.66 18.67 25.32 18.34 26 18 C27.25012527 14.24962419 27.70844922 10.91682845 27 7 C25.03723095 4.72191394 25.03723095 4.72191394 22 4 C17.76934307 4.21882708 15.54170582 4.63886279 12 7 C12.68886787 10.38891322 13.98716486 13.18011613 15.5625 16.25 C16.366875 17.8175 17.17125 19.385 18 21 C12.72 21 7.44 21 2 21 C1.67 22.32 1.34 23.64 1 25 C0.01 25 -0.98 25 -2 25 C-2 23.68 -2 22.36 -2 21 C-4.64 21 -7.28 21 -10 21 C-10 21.66 -10 22.32 -10 23 C-11.258125 23.268125 -12.51625 23.53625 -13.8125 23.8125 C-16.15893716 24.41991104 -17.95453279 24.97382191 -20.0625 26.1875 C-21.70160236 29.35643123 -20.93526757 31.6681093 -20 35 C-17.41139407 37.80432309 -16.00896512 38.91031421 -12.1875 39.25 C-11.465625 39.1675 -10.74375 39.085 -10 39 C-9.34 40.65 -8.68 42.3 -8 44 C-9.32 43.67 -10.64 43.34 -12 43 C-11.74357696 44.91864771 -11.46926564 46.83490994 -11.1875 48.75 C-11.03667969 49.81734375 -10.88585938 50.8846875 -10.73046875 51.984375 C-9.98679593 55.05451094 -9.07234528 56.66080478 -7 59 C-1.37082652 58.59791618 1.00386479 56.71069698 5 53 C4.65066406 52.55269531 4.30132812 52.10539062 3.94140625 51.64453125 C-0.88234333 45.23564017 -0.88234333 45.23564017 -1 41 C-0.34 40.01 0.32 39.02 1 38 C1.66 38.99 2.32 39.98 3 41 C5.50917293 41.60208754 5.50917293 41.60208754 8.4453125 41.73046875 C10.05986328 41.85131836 10.05986328 41.85131836 11.70703125 41.97460938 C12.83496094 42.04486328 13.96289062 42.11511719 15.125 42.1875 C16.82849609 42.3102832 16.82849609 42.3102832 18.56640625 42.43554688 C21.37697146 42.63630153 24.18780091 42.82388184 27 43 C20.50150152 46.52898593 13.21659306 46.15034569 6 46 C6.99 46.66 7.98 47.32 9 48 C9.66 47.34 10.32 46.68 11 46 C13.125 46.375 13.125 46.375 15 47 C14.67 48.32 14.34 49.64 14 51 C13.34 51 12.68 51 12 51 C12 51.99 12 52.98 12 54 C10.02 54.495 10.02 54.495 8 55 C8 55.99 8 56.98 8 58 C4.24881756 61.43193287 1.51183005 63.34105462 -3.625 63.625 C-7.12699457 63.41619283 -7.98276077 63.01283772 -10.9375 60.8125 C-14.85843564 55.46576958 -15.19243117 52.23209658 -14.2890625 45.79296875 C-14.19367187 45.20128906 -14.09828125 44.60960937 -14 44 C-15.051875 43.9071875 -15.051875 43.9071875 -16.125 43.8125 C-20.07821304 42.69528762 -21.99713289 40.79812617 -25 38 C-26.85962086 34.28075827 -26.57398707 30.04979769 -26 26 C-23.50712293 22.6761639 -20.91961121 20.43719078 -17 19 C-16.01 19 -15.02 19 -14 19 C-14.33 18.01 -14.66 17.02 -15 16 C-16.1136489 6.10403131 -16.1136489 6.10403131 -13.9765625 2.06640625 C-9.82391927 -1.98299447 -5.14078754 -1.56900158 0 0 Z " fill="#ECF8FE" transform="translate(39,17)"/>
<path d="M0 0 C2.5 1.5625 2.5 1.5625 3.5 2.5625 C3.83 1.5725 4.16 0.5825 4.5 -0.4375 C8.13 -0.4375 11.76 -0.4375 15.5 -0.4375 C15.5 12.7625 15.5 25.9625 15.5 39.5625 C11.87 39.5625 8.24 39.5625 4.5 39.5625 C4.17 38.5725 3.84 37.5825 3.5 36.5625 C2.901875 37.036875 2.30375 37.51125 1.6875 38 C-2.70573836 41.1380274 -7.29780613 41.16858084 -12.5 40.5625 C-17.77776079 38.85880178 -21.54278008 36.33954757 -24.5 31.5625 C-27.54600108 25.31819779 -27.51808371 17.62264224 -25.84765625 10.9609375 C-23.62834118 5.26501298 -20.7440059 2.61355798 -15.5 -0.4375 C-10.15272015 -2.21992662 -5.21336004 -2.14120144 0 0 Z M-13.5 11.5625 C-16.07068659 14.99008212 -15.85867594 18.40185914 -15.5 22.5625 C-13.92275698 26.54316095 -13.08999089 28.16917274 -9.5 30.5625 C-3.68051663 31.14320527 -3.68051663 31.14320527 1.4375 28.6875 C4.82985214 25.19234931 4.83088124 22.59177422 4.79296875 17.890625 C4.35033425 14.37315618 2.75830531 12.21932977 0.5 9.5625 C-4.43203697 7.09648152 -9.35064171 8.24301336 -13.5 11.5625 Z " fill="#2679EF" transform="translate(462.5,32.4375)"/>
<path d="M0 0 C1.92167077 0.9557336 3.78945259 2.01833776 5.64453125 3.09765625 C5.64453125 2.10765625 5.64453125 1.11765625 5.64453125 0.09765625 C9.27453125 0.09765625 12.90453125 0.09765625 16.64453125 0.09765625 C16.64453125 13.29765625 16.64453125 26.49765625 16.64453125 40.09765625 C13.01453125 40.09765625 9.38453125 40.09765625 5.64453125 40.09765625 C5.64453125 39.10765625 5.64453125 38.11765625 5.64453125 37.09765625 C4.69578125 37.75765625 3.74703125 38.41765625 2.76953125 39.09765625 C-1.88264474 41.72919014 -6.13182621 41.88365889 -11.35546875 41.09765625 C-17.33957474 39.42961277 -20.38675546 36.40606712 -23.4453125 31.09765625 C-26.31305715 24.79600277 -26.36020475 17.31232219 -24.16796875 10.78515625 C-22.09044184 5.96995368 -18.94967535 3.14838333 -14.60546875 0.28515625 C-9.60055472 -1.54356234 -5.04463084 -1.93252027 0 0 Z M-12.1875 12.40625 C-14.44978776 15.68240585 -14.67383081 19.20656444 -14.35546875 23.09765625 C-13.25468594 25.99008252 -13.25468594 25.99008252 -11.35546875 28.09765625 C-10.96359375 28.69578125 -10.57171875 29.29390625 -10.16796875 29.91015625 C-7.11073335 31.91317255 -3.82799015 31.72717767 -0.35546875 31.09765625 C2.45456585 29.30401714 4.15393593 28.0788469 5.64453125 25.09765625 C6.17571377 20.17768697 6.39558678 16.32438028 3.76953125 12.03515625 C1.06181894 9.56635973 0.0801373 9.14791849 -3.60546875 8.72265625 C-7.37550153 9.09965953 -9.40693657 9.78968763 -12.1875 12.40625 Z " fill="#2579F0" transform="translate(392.35546875,31.90234375)"/>
<path d="M0 0 C4.25662554 3.08107639 7.4684332 7.12763904 8.75390625 12.26953125 C8.75390625 15.56953125 8.75390625 18.86953125 8.75390625 22.26953125 C-0.81609375 22.26953125 -10.38609375 22.26953125 -20.24609375 22.26953125 C-17.74552782 27.24574868 -17.74552782 27.24574868 -14.24609375 29.26953125 C-11.94895188 29.29592954 -11.94895188 29.29592954 -9.55859375 28.89453125 C-8.75035156 28.78367187 -7.94210937 28.6728125 -7.109375 28.55859375 C-6.49449219 28.46320312 -5.87960937 28.3678125 -5.24609375 28.26953125 C-4.91609375 27.27953125 -4.58609375 26.28953125 -4.24609375 25.26953125 C-0.28609375 25.26953125 3.67390625 25.26953125 7.75390625 25.26953125 C6.53475567 31.51767795 2.72843614 34.69378006 -2.24609375 38.26953125 C-8.43165367 40.33138456 -15.78348904 40.36682592 -21.74609375 37.58203125 C-27.29002554 34.27633279 -29.93499049 29.87539069 -31.765625 23.796875 C-32.96884719 17.46773063 -32.28097821 11.44252588 -29.05859375 5.83203125 C-22.33564357 -3.65004877 -9.93863837 -5.68209022 0 0 Z M-20.24609375 11.26953125 C-20.24609375 12.25953125 -20.24609375 13.24953125 -20.24609375 14.26953125 C-14.30609375 14.26953125 -8.36609375 14.26953125 -2.24609375 14.26953125 C-4.41685729 8.7619706 -4.41685729 8.7619706 -9.24609375 6.26953125 C-14.40143653 5.21202504 -16.7674738 7.7909113 -20.24609375 11.26953125 Z " fill="#2679EF" transform="translate(283.24609375,33.73046875)"/>
<path d="M0 0 C3.63 0 7.26 0 11 0 C11.33 8.91 11.66 17.82 12 27 C13.52625 24.855 15.0525 22.71 16.625 20.5 C19.73205688 16.50149937 21.78671748 14.27221872 26.84765625 13.13671875 C30.31516931 13.18257599 33.58376851 13.41649769 37 14 C32.19231392 20.82066033 26.67375075 26.9001573 21 33 C22.59521355 36.81775828 25.05258757 39.38508535 27.875 42.375 C31.37214729 46.0809322 34.28252007 49.71522932 37 54 C24.92144311 55.37410549 24.92144311 55.37410549 20.39453125 52.13671875 C18.39469514 49.8442237 16.66989003 47.54058835 15 45 C14.01 43.68 13.02 42.36 12 41 C11.67 45.29 11.34 49.58 11 54 C7.37 54 3.74 54 0 54 C0 36.18 0 18.36 0 0 Z " fill="#2779EF" transform="translate(328,18)"/>
<path d="M0 0 C3.63 0 7.26 0 11 0 C11.03738281 1.74667969 11.07476562 3.49335937 11.11328125 5.29296875 C11.17894406 7.59116719 11.24539129 9.88934332 11.3125 12.1875 C11.33505859 13.33798828 11.35761719 14.48847656 11.38085938 15.67382812 C11.41630859 16.78564453 11.45175781 17.89746094 11.48828125 19.04296875 C11.51446533 20.06414795 11.54064941 21.08532715 11.56762695 22.13745117 C12.06193765 25.41006154 13.04039389 27.35057672 15 30 C17.1572017 30.74892744 17.1572017 30.74892744 19.5 30.5625 C20.2734375 30.56378906 21.046875 30.56507812 21.84375 30.56640625 C24.82329509 29.78373589 25.43585908 28.62457543 27 26 C27.50184739 23.10439031 27.50184739 23.10439031 27.51171875 19.921875 C27.54716797 18.76171875 27.58261719 17.6015625 27.61914062 16.40625 C27.64169922 15.1996875 27.66425781 13.993125 27.6875 12.75 C27.72166016 11.52796875 27.75582031 10.3059375 27.79101562 9.046875 C27.87347162 6.03134154 27.94263201 3.01609806 28 0 C31.63 0 35.26 0 39 0 C39 13.2 39 26.4 39 40 C35.37 40 31.74 40 28 40 C27.67 39.34 27.34 38.68 27 38 C26.195625 38.495 25.39125 38.99 24.5625 39.5 C19.01893172 41.83413401 14.34165756 41.83946214 8.6875 39.8125 C3.65591438 36.41910505 1.60608835 32.75985496 0 27 C-0.22705078 23.84033203 -0.22705078 23.84033203 -0.1953125 20.5078125 C-0.18886719 19.30898438 -0.18242187 18.11015625 -0.17578125 16.875 C-0.15902344 15.6375 -0.14226562 14.4 -0.125 13.125 C-0.11597656 11.86429688 -0.10695312 10.60359375 -0.09765625 9.3046875 C-0.07415808 6.2029296 -0.04130334 3.10156348 0 0 Z " fill="#2679EF" transform="translate(157,32)"/>
<path d="M0 0 C3.45176275 2.40627691 4.4453892 4.28374325 5.3125 8.3828125 C5.4671875 9.7440625 5.4671875 9.7440625 5.625 11.1328125 C1.995 11.1328125 -1.635 11.1328125 -5.375 11.1328125 C-5.705 10.1428125 -6.035 9.1528125 -6.375 8.1328125 C-8.66205831 6.98928334 -9.96764762 7.02946811 -12.5 7.0703125 C-13.77875 7.0909375 -15.0575 7.1115625 -16.375 7.1328125 C-16.44290304 9.09100526 -16.44290304 9.09100526 -15.375 11.1328125 C-12.92041464 12.13560042 -10.66862001 12.89249286 -8.125 13.5703125 C-2.51374981 15.06772705 0.68925428 16.58303127 4.625 21.1328125 C4.955 21.4628125 5.285 21.7928125 5.625 22.1328125 C6.17571508 25.86980771 6.42076793 29.56108828 4.68359375 32.9921875 C2.06569585 36.3076444 -0.43108177 37.85871263 -4.375 39.1328125 C-11.01226414 39.88660208 -16.57459829 39.49704549 -22.375 36.1328125 C-25.7277994 33.43599559 -27.1566886 32.02285129 -28.1875 27.8203125 C-28.249375 26.9334375 -28.31125 26.0465625 -28.375 25.1328125 C-26.60550905 25.02466025 -24.83412513 24.94715167 -23.0625 24.8828125 C-22.07636719 24.83640625 -21.09023437 24.79 -20.07421875 24.7421875 C-17.375 25.1328125 -17.375 25.1328125 -15.78125 27.1328125 C-15.3171875 27.7928125 -14.853125 28.4528125 -14.375 29.1328125 C-12.3261352 29.61338965 -12.3261352 29.61338965 -10.1875 29.3828125 C-8.929375 29.3003125 -7.67125 29.2178125 -6.375 29.1328125 C-6.375 27.8128125 -6.375 26.4928125 -6.375 25.1328125 C-7.47199219 24.76929687 -8.56898438 24.40578125 -9.69921875 24.03125 C-11.15399067 23.52442623 -12.60839901 23.01655801 -14.0625 22.5078125 C-14.78373047 22.27191406 -15.50496094 22.03601563 -16.24804688 21.79296875 C-21.55463785 19.90295005 -24.22310465 17.83622223 -27.375 13.1328125 C-28.05828734 8.88124682 -27.67686968 6.76070143 -25.8125 2.8828125 C-19.06476064 -4.73002165 -8.4989443 -4.90060095 0 0 Z " fill="#2679EE" transform="translate(144.375,33.8671875)"/>
<path d="M0 0 C2.64 0 5.28 0 8 0 C8 1.32 8 2.64 8 4 C8.99 4 9.98 4 11 4 C11.33 3.01 11.66 2.02 12 1 C22.36874656 -0.20800931 22.36874656 -0.20800931 26.16796875 2.60546875 C28.45056681 5.4953138 29.90956591 7.79421215 30.1875 11.5 C28.42990783 15.20019405 26.28376337 18.60385005 24 22 C22.20759337 21.88610125 20.41605165 21.75852313 18.625 21.625 C17.12839844 21.52058594 17.12839844 21.52058594 15.6015625 21.4140625 C13 21 13 21 11 19 C10.67 19.99 10.34 20.98 10 22 C11.82188812 25.51812879 13.80450318 28.70675477 16 32 C11.894534 35.97185616 8.97031739 38.70876501 3 39 C-0.61482935 34.68552626 -2.14422653 31.95163023 -2.0625 26.3125 C-2.05347656 25.50425781 -2.04445313 24.69601563 -2.03515625 23.86328125 C-2.02355469 23.24839844 -2.01195312 22.63351563 -2 22 C-1.01 21.67 -0.02 21.34 1 21 C0.67 20.01 0.34 19.02 0 18 C-0.70125 18.268125 -1.4025 18.53625 -2.125 18.8125 C-5 19 -5 19 -8.25 17 C-10.66207054 14.75664942 -11.07390038 13.76598213 -12.125 10.4375 C-12 7 -12 7 -10.1875 4.625 C-6.59122751 1.95348329 -4.44954406 1.90327078 0 2 C0 1.34 0 0.68 0 0 Z " fill="#E7F8FE" transform="translate(29,38)"/>
<path d="M0 0 C3.3 0 6.6 0 10 0 C10 17.82 10 35.64 10 54 C6.37 54 2.74 54 -1 54 C-1.02464032 46.47029868 -1.04283141 38.94062061 -1.05493164 31.41088867 C-1.0599737 28.84708243 -1.06680714 26.28327909 -1.07543945 23.71948242 C-1.08751064 20.04344979 -1.09322942 16.36745502 -1.09765625 12.69140625 C-1.10281754 11.53725723 -1.10797882 10.38310822 -1.11329651 9.19398499 C-1.11337204 8.13296066 -1.11344757 7.07193634 -1.11352539 5.97875977 C-1.115746 5.03944107 -1.11796661 4.10012238 -1.12025452 3.13233948 C-1 1 -1 1 0 0 Z " fill="#2679EF" transform="translate(419,18)"/>
<path d="M0 0 C0 3.96 0 7.92 0 12 C-3.80859375 12.53710938 -3.80859375 12.53710938 -7.6171875 13.07421875 C-10.19554109 13.77011272 -10.19554109 13.77011272 -11.12304688 16.2265625 C-12.0131109 19.04146433 -12.31081055 21.35810078 -12.4140625 24.30078125 C-12.47207031 25.76547852 -12.47207031 25.76547852 -12.53125 27.25976562 C-12.57765625 28.77086914 -12.57765625 28.77086914 -12.625 30.3125 C-12.68300781 31.85260742 -12.68300781 31.85260742 -12.7421875 33.42382812 C-12.83614489 35.94893309 -12.91914808 38.47444144 -13 41 C-16.63 41 -20.26 41 -24 41 C-24 27.8 -24 14.6 -24 1 C-20.37 1 -16.74 1 -13 1 C-12.67 1.99 -12.34 2.98 -12 4 C-10.4221875 3.01 -10.4221875 3.01 -8.8125 2 C-5.38509904 -0.15052609 -4.50955352 0 0 0 Z " fill="#2779F0" transform="translate(322,31)"/>
<path d="M0 0 C0.66 0.33 1.32 0.66 2 1 C2.31123517 10.18143754 2.31123517 10.18143754 0 14 C-2.16714748 16.2365389 -4.38272954 18.30372895 -7 20 C-7.99 20 -8.98 20 -10 20 C-9.67 20.66 -9.34 21.32 -9 22 C-8.52059318 28.11243698 -9.56476192 33.0777143 -13.5625 37.875 C-16.6954255 40.32685474 -19.08346572 40.33031012 -23 40 C-25.9921875 38.5390625 -25.9921875 38.5390625 -28.875 36.625 C-29.84179688 35.99851563 -30.80859375 35.37203125 -31.8046875 34.7265625 C-32.52914062 34.15679687 -33.25359375 33.58703125 -34 33 C-34 32.34 -34 31.68 -34 31 C-32.68 30.67 -31.36 30.34 -30 30 C-30 29.01 -30 28.02 -30 27 C-29.34 27 -28.68 27 -28 27 C-28 25.68 -28 24.36 -28 23 C-28.8971875 23.2475 -28.8971875 23.2475 -29.8125 23.5 C-32 24 -32 24 -35 24 C-35.66 23.01 -36.32 22.02 -37 21 C-36.33355469 21.02320312 -35.66710938 21.04640625 -34.98046875 21.0703125 C-23.62338385 21.29268899 -14.23696806 20.10396956 -5 13 C-2.55423173 9.33134759 -2.76392746 7.32799657 -3 3 C-3.495 2.01 -3.495 2.01 -4 1 C-2.68 1.33 -1.36 1.66 0 2 C0 1.34 0 0.68 0 0 Z " fill="#DAEEFD" transform="translate(81,41)"/>
<path d="M0 0 C-0.99 0.33 -1.98 0.66 -3 1 C-1.68 1.66 -0.36 2.32 1 3 C-1.64 3.99 -4.28 4.98 -7 6 C-7.94271002 9.25639659 -7.94271002 9.25639659 -8 13 C-5.82884051 15.8535239 -4.19302866 17.55687507 -0.8125 18.8125 C1.02786852 19.03429972 1.02786852 19.03429972 3 19 C3.66 20.65 4.32 22.3 5 24 C3.68 23.67 2.36 23.34 1 23 C1.25642304 24.91864771 1.53073436 26.83490994 1.8125 28.75 C1.96332031 29.81734375 2.11414062 30.8846875 2.26953125 31.984375 C3.01320407 35.05451094 3.92765472 36.66080478 6 39 C11.62917348 38.59791618 14.00386479 36.71069698 18 33 C17.65066406 32.55269531 17.30132812 32.10539062 16.94140625 31.64453125 C12.11765667 25.23564017 12.11765667 25.23564017 12 21 C12.66 20.01 13.32 19.02 14 18 C14.66 18.99 15.32 19.98 16 21 C18.50917293 21.60208754 18.50917293 21.60208754 21.4453125 21.73046875 C23.05986328 21.85131836 23.05986328 21.85131836 24.70703125 21.97460938 C25.83496094 22.04486328 26.96289062 22.11511719 28.125 22.1875 C29.82849609 22.3102832 29.82849609 22.3102832 31.56640625 22.43554688 C34.37697146 22.63630153 37.18780091 22.82388184 40 23 C33.50150152 26.52898593 26.21659306 26.15034569 19 26 C19.99 26.66 20.98 27.32 22 28 C22.66 27.34 23.32 26.68 24 26 C26.125 26.375 26.125 26.375 28 27 C27.67 28.32 27.34 29.64 27 31 C26.34 31 25.68 31 25 31 C25 31.99 25 32.98 25 34 C23.02 34.495 23.02 34.495 21 35 C21 35.99 21 36.98 21 38 C17.24881756 41.43193287 14.51183005 43.34105462 9.375 43.625 C5.87300543 43.41619283 5.01723923 43.01283772 2.0625 40.8125 C-1.85843564 35.46576958 -2.19243117 32.23209658 -1.2890625 25.79296875 C-1.19367187 25.20128906 -1.09828125 24.60960938 -1 24 C-2.051875 23.9071875 -2.051875 23.9071875 -3.125 23.8125 C-7.07821304 22.69528762 -8.99713289 20.79812617 -12 18 C-13.85962086 14.28075827 -13.57398707 10.04979769 -13 6 C-9.55173582 1.40231443 -5.7968469 -2.07030246 0 0 Z " fill="#DEF3FE" transform="translate(26,37)"/>
<path d="M0 0 C3.50790795 0.16745215 5.46118822 0.37262339 8.27734375 2.50390625 C10.5903282 5.37200696 12.03456378 7.6691838 12.3125 11.375 C10.55490783 15.07519405 8.40876337 18.47885005 6.125 21.875 C-3.24834382 22.14185676 -3.24834382 22.14185676 -6.9765625 19.23828125 C-9.54048062 16.04857269 -10.83478204 13.88044897 -11 9.75 C-10.62875 8.80125 -10.2575 7.8525 -9.875 6.875 C-9.441875 5.76125 -9.00875 4.6475 -8.5625 3.5 C-5.4184164 0.42903462 -4.28057359 0.29704104 0 0 Z " fill="#2C7CED" transform="translate(46.875,38.125)"/>
<path d="M0 0 C2.04356552 1.89759656 2.16817571 2.96523184 2.75 5.625 C3.73020375 6.6444119 4.72803008 7.64746356 5.75 8.625 C5.75 9.285 5.75 9.945 5.75 10.625 C4.43 10.625 3.11 10.625 1.75 10.625 C1.75 9.305 1.75 7.985 1.75 6.625 C-1.41115776 7.99483503 -2.2427092 8.6140638 -4.25 11.625 C-6.6328125 11.91796875 -6.6328125 11.91796875 -9.375 11.8125 C-10.28507812 11.78542969 -11.19515625 11.75835937 -12.1328125 11.73046875 C-12.83148437 11.69566406 -13.53015625 11.66085938 -14.25 11.625 C-15.50232595 7.86802216 -15.70125842 4.55505059 -15.25 0.625 C-13.72069547 -1.87018108 -12.62861613 -2.24547343 -9.875 -3.1875 C-5.86079785 -3.47422873 -3.36460201 -2.05614567 0 0 Z " fill="#307FEC" transform="translate(43.25,23.375)"/>
<path d="M0 0 C7.63332592 -0.15507886 15.44884951 -0.20727293 23 1 C24.49498913 3.98997825 24.11577446 6.70042775 24 10 C23.67 10.99 23.34 11.98 23 13 C22.34 13 21.68 13 21 13 C21 13.66 21 14.32 21 15 C16.52279926 15.67158011 14.1876602 14.75489748 10.625 12.1875 C8.5390625 10.60546875 8.5390625 10.60546875 7 9 C7 8.01 7 7.02 7 6 C7.66 6 8.32 6 9 6 C9 4.68 9 3.36 9 2 C8.401875 2.165 7.80375 2.33 7.1875 2.5 C5 3 5 3 2 3 C1.34 2.01 0.68 1.02 0 0 Z " fill="#2D7BEE" transform="translate(44,62)"/>
<path d="M0 0 C2.4375 1.0625 2.4375 1.0625 4 3 C4.57395825 6.92751431 4.25209574 10.24371278 3 14 C-0.77318094 14.47577763 -4.24635482 14.69492449 -8 14 C-10.59113351 11.73747178 -12.05913815 9.3050788 -13 6 C-12.63328277 2.93846676 -12.27618251 2.23556743 -9.875 0.1875 C-6.10980431 -1.36768952 -3.91611935 -0.99683038 0 0 Z " fill="#327EEB" transform="translate(63,21)"/>
<path d="M0 0 C3.77708475 -0.48389698 7.24273896 -0.70094307 11 0 C13.67942545 2.30967487 15.35361435 4.88784486 17 8 C12.894534 11.97185616 9.97031739 14.70876501 4 15 C0.71610663 11.3983105 -0.68767218 8.89313587 -1 4 C-0.70007951 2.65875558 -0.37268087 1.32287485 0 0 Z " fill="#2E7DE9" transform="translate(28,62)"/>
<path d="M0 0 C8.33449477 0.80139373 8.33449477 0.80139373 11 4 C11.6032359 8.07184232 11.44392163 10.23167411 9.375 13.8125 C6.68703734 16.28825508 4.51718971 17.12070257 1 18 C-4.19302949 10.15817694 -4.19302949 10.15817694 -3.4375 5.625 C-2 3 -2 3 0 0 Z " fill="#2D79E7" transform="translate(68,40)"/>
<path d="M0 0 C3.04171495 5.35341831 3.04171495 5.35341831 2.875 7.9375 C2.441875 8.9584375 2.441875 8.9584375 2 10 C1.75378906 10.59425781 1.50757813 11.18851563 1.25390625 11.80078125 C0.52417912 13.54304841 -0.23592288 15.27252129 -1 17 C-4.91255361 16.42036243 -7.2572767 14.81685096 -10 12 C-11.0625 8.5 -11.0625 8.5 -11 5 C-7.73135168 0.71694358 -5.23248557 -0.13769699 0 0 Z " fill="#297DEF" transform="translate(28,40)"/>
<path d="M0 0 C1.9375 0.375 1.9375 0.375 4 1 C5.17635297 3.35270593 5.13359359 4.820752 5.125 7.4375 C5.12757812 8.21996094 5.13015625 9.00242187 5.1328125 9.80859375 C5 12 5 12 4 15 C5.0725 15.103125 6.145 15.20625 7.25 15.3125 C10.84934684 15.97238025 12.50003675 16.40003822 15 19 C15 19.99 15 20.98 15 22 C14.443125 21.855625 13.88625 21.71125 13.3125 21.5625 C8.05863683 20.28453328 3.40291471 19.80353037 -2 20 C-2.33 18.35 -2.66 16.7 -3 15 C-2.34 14.67 -1.68 14.34 -1 14 C0.04976964 10.85069107 0.10131595 8.61185544 0.0625 5.3125 C0.05347656 4.31863281 0.04445313 3.32476563 0.03515625 2.30078125 C0.02355469 1.54152344 0.01195313 0.78226563 0 0 Z " fill="#ECF9FE" transform="translate(66,21)"/>
<path d="M0 0 C3.58633707 1.61019215 4.50308098 2.82299001 6.0625 6.375 C6.0625 7.365 6.0625 8.355 6.0625 9.375 C3.17834117 10.81707941 0.64528472 10.46894887 -2.5625 10.4375 C-3.75101563 10.42847656 -4.93953125 10.41945313 -6.1640625 10.41015625 C-7.07929687 10.39855469 -7.99453125 10.38695312 -8.9375 10.375 C-8.24193514 6.42684136 -7.24331673 3.69537609 -4.9375 0.375 C-2.9375 -0.625 -2.9375 -0.625 0 0 Z " fill="#EBF5FD" transform="translate(62.9375,49.625)"/>
<path d="M0 0 C0.33 0 0.66 0 1 0 C1 2.64 1 5.28 1 8 C1.86625 8.268125 2.7325 8.53625 3.625 8.8125 C12.46067416 11.92134831 12.46067416 11.92134831 13.875 14.75 C13.91625 15.4925 13.9575 16.235 14 17 C14.12375 18.60875 14.12375 18.60875 14.25 20.25 C13.8636348 26.04547796 12.10838356 31.72043379 8 36 C5 37 5 37 2 36 C2.02320312 36.65226562 2.04640625 37.30453125 2.0703125 37.9765625 C2.17583753 43.08698903 2.01926302 47.20425033 0 52 C-0.99 51.67 -1.98 51.34 -3 51 C-2.2575 49.5459375 -2.2575 49.5459375 -1.5 48.0625 C0.39857367 43.71271619 0.28589988 39.66969796 0 35 C0.9075 34.5875 1.815 34.175 2.75 33.75 C6.31873399 31.82837401 9.11366292 30.06811986 10.75 26.25 C10.8325 25.5075 10.915 24.765 11 24 C11.07476562 23.37609375 11.14953125 22.7521875 11.2265625 22.109375 C11.49681098 18.26900182 11.53665964 16.6179717 8.9375 13.625 C5.60095934 11.7792541 2.70242432 10.87115866 -1 10 C-0.67 6.7 -0.34 3.4 0 0 Z " fill="#377DDB" transform="translate(71,26)"/>
<path d="M0 0 C7.63332592 -0.15507886 15.44884951 -0.20727293 23 1 C24.50934217 4.01868434 24.17510672 6.67297229 24 10 C23.01 11.485 23.01 11.485 22 13 C22 9.37 22 5.74 22 2 C18.7 2.33 15.4 2.66 12 3 C11.34 5.64 10.68 8.28 10 11 C9.01 10.34 8.02 9.68 7 9 C7 8.01 7 7.02 7 6 C7.66 6 8.32 6 9 6 C9 4.68 9 3.36 9 2 C8.401875 2.165 7.80375 2.33 7.1875 2.5 C5 3 5 3 2 3 C1.34 2.01 0.68 1.02 0 0 Z " fill="#3F7ED8" transform="translate(44,62)"/>
<path d="M0 0 C0.66 0.33 1.32 0.66 2 1 C2 4.3 2 7.6 2 11 C4.97 11.33 7.94 11.66 11 12 C11 12.99 11 13.98 11 15 C8.69 15 6.38 15 4 15 C4 15.66 4 16.32 4 17 C1.69 16.67 -0.62 16.34 -3 16 C-2.50886719 15.64292969 -2.01773437 15.28585938 -1.51171875 14.91796875 C0.71372806 12.09446905 0.29250922 9.84781046 0.1875 6.3125 C0.14689453 4.54326172 0.14689453 4.54326172 0.10546875 2.73828125 C0.05326172 1.38283203 0.05326172 1.38283203 0 0 Z " fill="#F8FDFE" transform="translate(25,23)"/>
<path d="M0 0 C0.66 0.33 1.32 0.66 2 1 C2.1953452 6.76268335 2.29784696 11.10271471 -1.4375 15.8125 C-3 17 -3 17 -6 17 C-5.38722388 14.03824877 -4.74627478 12.61941217 -3 10 C-2.65777555 5.34582831 -2.65777555 5.34582831 -4 1 C-2.68 1.33 -1.36 1.66 0 2 C0 1.34 0 0.68 0 0 Z " fill="#DCF7FE" transform="translate(81,41)"/>
<path d="M0 0 C0.33 1.65 0.66 3.3 1 5 C-0.0828125 4.7525 -0.0828125 4.7525 -1.1875 4.5 C-3.86427545 4.02412881 -6.28949487 3.922557 -9 4 C-8.67 4.66 -8.34 5.32 -8 6 C-7.960008 7.99960012 -7.95653201 10.00047242 -8 12 C-6.68 12 -5.36 12 -4 12 C-4 12.99 -4 13.98 -4 15 C-3.01 15 -2.02 15 -1 15 C-1 15.66 -1 16.32 -1 17 C-4.91255361 16.42036243 -7.2572767 14.81685096 -10 12 C-11.0625 8.5 -11.0625 8.5 -11 5 C-7.73135168 0.71694358 -5.23248557 -0.13769699 0 0 Z " fill="#4884D6" transform="translate(28,40)"/>
<path d="M0 0 C0.268125 0.556875 0.53625 1.11375 0.8125 1.6875 C2.00699665 4.08933398 2.00699665 4.08933398 3.625 6.625 C5 9 5 9 5 11 C2.69 11 0.38 11 -2 11 C-2.33 10.01 -2.66 9.02 -3 8 C-3.66 8 -4.32 8 -5 8 C-3.375 2.25 -3.375 2.25 0 0 Z " fill="#DDF1FE" transform="translate(32,48)"/>
<path d="M0 0 C3.046193 1.07512694 5.29871682 2.21609302 7.9375 4.125 C12.03049653 6.63091625 14.78589334 6.46612772 19.375 5.5 C19.91125 5.335 20.4475 5.17 21 5 C21 5.66 21 6.32 21 7 C16.23170934 8.97709613 13.02739018 9.18829222 8 8 C5.0625 6.5625 5.0625 6.5625 3 5 C3 4.34 3 3.68 3 3 C1.8553125 3.5259375 1.8553125 3.5259375 0.6875 4.0625 C-2 5 -2 5 -5 4 C-3.35 2.68 -1.7 1.36 0 0 Z " fill="#367EDF" transform="translate(47,74)"/>
<path d="M0 0 C6.75 0.75 6.75 0.75 9 3 C8.01 3 7.02 3 6 3 C5.67 3.99 5.34 4.98 5 6 C3.35 6 1.7 6 0 6 C-0.33 8.31 -0.66 10.62 -1 13 C-2.625 11.375 -2.625 11.375 -4 9 C-3.1932182 5.40615382 -2.04691418 3.07037127 0 0 Z " fill="#317FE4" transform="translate(68,40)"/>
<path d="M0 0 C0.33 0 0.66 0 1 0 C1 2.64 1 5.28 1 8 C1.86625 8.268125 2.7325 8.53625 3.625 8.8125 C12.46067416 11.92134831 12.46067416 11.92134831 13.875 14.75 C13.936875 15.86375 13.936875 15.86375 14 17 C14.12375 18.7325 14.12375 18.7325 14.25 20.5 C13.98060385 24.27154611 13.33061516 25.2032618 11 28 C11.05800781 27.18015625 11.11601563 26.3603125 11.17578125 25.515625 C11.67420713 18.98780854 11.67420713 18.98780854 8.9375 13.375 C5.6227201 11.8234009 2.56110729 10.8379076 -1 10 C-0.67 6.7 -0.34 3.4 0 0 Z " fill="#4B86E0" transform="translate(71,26)"/>
<path d="M0 0 C0.99 0 1.98 0 3 0 C3 2.64 3 5.28 3 8 C0.36 7.67 -2.28 7.34 -5 7 C-5.33 5.68 -5.66 4.36 -6 3 C-5.195625 2.87625 -4.39125 2.7525 -3.5625 2.625 C-2.716875 2.41875 -1.87125 2.2125 -1 2 C-0.67 1.34 -0.34 0.68 0 0 Z " fill="#2877FB" transform="translate(74,43)"/>
<path d="M0 0 C0.66 0 1.32 0 2 0 C1.67 1.98 1.34 3.96 1 6 C-0.32 6.33 -1.64 6.66 -3 7 C-3 7.66 -3 8.32 -3 9 C-4.32 9.33 -5.64 9.66 -7 10 C-6.47731534 7.23723823 -5.89130413 4.6739124 -5 2 C-3.35 2 -1.7 2 0 2 C0 1.34 0 0.68 0 0 Z " fill="#F4FCFD" transform="translate(50,65)"/>
<path d="M0 0 C0.66 1.65 1.32 3.3 2 5 C0.68 4.67 -0.64 4.34 -2 4 C-2 7.3 -2 10.6 -2 14 C-4 12 -4 12 -4.1953125 9.8359375 C-4.17210937 9.02382812 -4.14890625 8.21171875 -4.125 7.375 C-4.10695313 6.55773438 -4.08890625 5.74046875 -4.0703125 4.8984375 C-4.03550781 3.95871094 -4.03550781 3.95871094 -4 3 C-4.99 3 -5.98 3 -7 3 C-7 2.34 -7 1.68 -7 1 C-2.25 0 -2.25 0 0 0 Z " fill="#F5FCFE" transform="translate(29,56)"/>
<path d="M0 0 C0.66 0.66 1.32 1.32 2 2 C-2.455 2.495 -2.455 2.495 -7 3 C-7.33 5.31 -7.66 7.62 -8 10 C-8.66 10 -9.32 10 -10 10 C-10.35915493 2.6971831 -10.35915493 2.6971831 -8.9375 -0.0625 C-5.79513385 -1.58299975 -3.30307292 -0.78072633 0 0 Z " fill="#3A7ADC" transform="translate(38,22)"/>
<path d="M0 0 C3.44025728 1.24231513 6.30207814 2.49478685 9 5 C9.3721042 6.32303717 9.70630173 7.65737935 10 9 C10.98020375 10.0194119 11.97803008 11.02246356 13 12 C13 12.66 13 13.32 13 14 C11.68 14 10.36 14 9 14 C9 12.68 9 11.36 9 10 C8.01 9.67 7.02 9.34 6 9 C6 8.01 6 7.02 6 6 C4.01924973 4.63823419 2.01920337 3.30406884 0 2 C0 1.34 0 0.68 0 0 Z " fill="#80B3E4" transform="translate(36,20)"/>
<path d="M0 0 C0.66 0 1.32 0 2 0 C2.33 3.96 2.66 7.92 3 12 C1.68 12.33 0.36 12.66 -1 13 C-1.33 12.34 -1.66 11.68 -2 11 C-1.01 11 -0.02 11 1 11 C1 10.01 1 9.02 1 8 C0.01 8 -0.98 8 -2 8 C-2.125 5.125 -2.125 5.125 -2 2 C-1.34 1.34 -0.68 0.68 0 0 Z " fill="#3B85E7" transform="translate(22,24)"/>
<path d="M0 0 C1.98 0.66 3.96 1.32 6 2 C5.9175 3.299375 5.835 4.59875 5.75 5.9375 C5.71589367 11.30924641 7.52040234 15.3175455 10 20 C8.35 19.67 6.7 19.34 5 19 C3.87137825 13.63904667 3.90311779 8.44693314 4 3 C2.68 2.67 1.36 2.34 0 2 C0 1.34 0 0.68 0 0 Z " fill="#3C7ED4" transform="translate(19,59)"/>
<path d="M0 0 C1.98 0 3.96 0 6 0 C6 1.32 6 2.64 6 4 C6.66 4 7.32 4 8 4 C6.87548273 6.9719385 5.77706209 9.33440687 4 12 C4.33 9.69 4.66 7.38 5 5 C3.68 4.67 2.36 4.34 1 4 C0.67 2.68 0.34 1.36 0 0 Z " fill="#ABCAED" transform="translate(31,38)"/>
<path d="M0 0 C0.28875 0.639375 0.5775 1.27875 0.875 1.9375 C1.82823451 4.15206079 1.82823451 4.15206079 4 5 C7 11.23076923 7 11.23076923 7 15 C3.61571159 13.9497036 2.97132891 12.94675369 1.25 9.75 C0.06488343 6.19465028 -0.27096425 3.70317814 0 0 Z " fill="#D4ECFE" transform="translate(24,64)"/>
<path d="M0 0 C1.45922693 0.11409593 2.91740598 0.24165544 4.375 0.375 C5.59316406 0.47941406 5.59316406 0.47941406 6.8359375 0.5859375 C9 1 9 1 11 3 C10.34 3 9.68 3 9 3 C8.67 3.66 8.34 4.32 8 5 C5.35139573 5.59355614 2.70802678 5.74209269 0 6 C0 5.34 0 4.68 0 4 C0.99 3.34 1.98 2.68 3 2 C2.01 1.34 1.02 0.68 0 0 Z " fill="#D6F0FC" transform="translate(30,16)"/>
<path d="M0 0 C1.17949219 0.10183594 2.35898437 0.20367187 3.57421875 0.30859375 C4.47785156 0.39238281 5.38148437 0.47617187 6.3125 0.5625 C0.90687651 3.51211638 -4.76060892 4.22943812 -10.6875 2.5625 C-8.55715482 -1.69819037 -4.07079506 -0.36274411 0 0 Z " fill="#F6FDFD" transform="translate(59.6875,59.4375)"/>
<path d="M0 0 C3.77708475 -0.48389698 7.24273896 -0.70094307 11 0 C13.67942545 2.30967487 15.35361435 4.88784486 17 8 C16.01 8.66 15.02 9.32 14 10 C13.71125 9.030625 13.4225 8.06125 13.125 7.0625 C12.35785318 3.89335797 12.35785318 3.89335797 10 3 C10 2.34 10 1.68 10 1 C6.7 1.33 3.4 1.66 0 2 C0 1.34 0 0.68 0 0 Z " fill="#4481D9" transform="translate(28,62)"/>
<path d="M0 0 C1.32 1.32 2.64 2.64 4 4 C3.67 4.99 3.34 5.98 3 7 C1.02 7 -0.96 7 -3 7 C-1.125 1.125 -1.125 1.125 0 0 Z " fill="#4A89E0" transform="translate(61,53)"/>
<path d="M0 0 C1.32 0 2.64 0 4 0 C4 0.66 4 1.32 4 2 C5.32 2 6.64 2 8 2 C7.34 3.98 6.68 5.96 6 8 C1.125 3.375 1.125 3.375 0 0 Z " fill="#ABC5E9" transform="translate(59,39)"/>
<path d="M0 0 C0.66 0 1.32 0 2 0 C2.99 1.98 3.98 3.96 5 6 C4.34 6 3.68 6 3 6 C2.67 7.32 2.34 8.64 2 10 C-1.07692308 5.69230769 -1.07692308 5.69230769 -0.6875 2.1875 C-0.460625 1.465625 -0.23375 0.74375 0 0 Z " fill="#DCF0FC" transform="translate(29,38)"/>
<path d="M0 0 C0.99 0 1.98 0 3 0 C1.25 4.875 1.25 4.875 -1 6 C-3.3329866 6.04022391 -5.66706666 6.04320247 -8 6 C-7.67 5.34 -7.34 4.68 -7 4 C-5.7934375 3.7834375 -5.7934375 3.7834375 -4.5625 3.5625 C-1.65559342 3.23497283 -1.65559342 3.23497283 0 0 Z " fill="#E7F8FE" transform="translate(67,74)"/>
<path d="M0 0 C1.2380014 3.57644848 0.74926071 6.33694766 0 10 C-1.32 10 -2.64 10 -4 10 C-3.43454163 6.04179141 -2.19097652 3.3340947 0 0 Z " fill="#D3EEFC" transform="translate(58,50)"/>
<path d="M0 0 C0.33 1.65 0.66 3.3 1 5 C-0.051875 4.7525 -0.051875 4.7525 -1.125 4.5 C-4.13888194 3.97584662 -6.94713625 3.92900317 -10 4 C-6.66064924 0.50886057 -4.84725717 -0.1275594 0 0 Z " fill="#4386E1" transform="translate(28,40)"/>
<path d="M0 0 C2.79872437 2.52788007 4.45773019 4.20411134 5 8 C4.34 8 3.68 8 3 8 C2.34 7.34 1.68 6.68 1 6 C0.01 5.67 -0.98 5.34 -2 5 C-2 4.34 -2 3.68 -2 3 C-2.66 2.67 -3.32 2.34 -4 2 C-2.68 1.34 -1.36 0.68 0 0 Z " fill="#DEF4FD" transform="translate(50,27)"/>
<path d="M0 0 C3.3 0 6.6 0 10 0 C9.67 0.99 9.34 1.98 9 3 C6.36 2.67 3.72 2.34 1 2 C0.67 2.99 0.34 3.98 0 5 C0 3.35 0 1.7 0 0 Z " fill="#287ADF" transform="translate(419,18)"/>
<path d="M0 0 C0.66 0.33 1.32 0.66 2 1 C1.67 1.99 1.34 2.98 1 4 C0.34 4 -0.32 4 -1 4 C-1 6.97 -1 9.94 -1 13 C-2.625 11.375 -2.625 11.375 -4 9 C-3.1932182 5.40615382 -2.04691418 3.07037127 0 0 Z " fill="#4784D9" transform="translate(68,40)"/>
<path d="M0 0 C1.32 0.33 2.64 0.66 4 1 C4 3.97 4 6.94 4 10 C3.34 10 2.68 10 2 10 C1.34 6.7 0.68 3.4 0 0 Z " fill="#F8FEFE" transform="translate(66,21)"/>
<path d="M0 0 C-2.59100826 1.29550413 -4.19424369 0.96400816 -7.0625 0.6875 C-7.96097656 0.60886719 -8.85945313 0.53023437 -9.78515625 0.44921875 C-10.88150391 0.22685547 -10.88150391 0.22685547 -12 0 C-12.33 -0.66 -12.66 -1.32 -13 -2 C-7.69990734 -3.32502317 -4.74286737 -2.5408218 0 0 Z " fill="#3A7CDA" transform="translate(54,59)"/>
<path d="M0 0 C-0.99 2.64 -1.98 5.28 -3 8 C-3.66 7.67 -4.32 7.34 -5 7 C-5 5.68 -5 4.36 -5 3 C-5.66 2.67 -6.32 2.34 -7 2 C-7 1.34 -7 0.68 -7 0 C-2.25 -1.125 -2.25 -1.125 0 0 Z " fill="#2A79DF" transform="translate(143,56)"/>
<path d="M0 0 C0.66 0 1.32 0 2 0 C2 0.66 2 1.32 2 2 C2.5775 1.649375 3.155 1.29875 3.75 0.9375 C6.35801776 -0.14917407 7.39417629 0.06934867 10 1 C4.25 5 4.25 5 2 5 C1.34 3.35 0.68 1.7 0 0 Z " fill="#377ED9" transform="translate(67,53)"/>
<path d="M0 0 C-0.33 2.97 -0.66 5.94 -1 9 C-1.66 8.67 -2.32 8.34 -3 8 C-3.40729228 5.67843403 -3.74438677 3.3431213 -4 1 C-2 0 -2 0 0 0 Z " fill="#FAFDFD" transform="translate(36,43)"/>
<path d="M0 0 C1.32 0 2.64 0 4 0 C4 0.99 4 1.98 4 3 C5.32 3.66 6.64 4.32 8 5 C8 5.33 8 5.66 8 6 C5.69 5.67 3.38 5.34 1 5 C0.67 3.35 0.34 1.7 0 0 Z " fill="#FCFDFC" transform="translate(49,32)"/>
<path d="M0 0 C0 0.33 0 0.66 0 1 C-1.98 1 -3.96 1 -6 1 C-6 1.66 -6 2.32 -6 3 C-5.01 3.33 -4.02 3.66 -3 4 C-5.64 4.33 -8.28 4.66 -11 5 C-8.45499142 -0.63537615 -5.97208347 -0.11059414 0 0 Z " fill="#D2F2FD" transform="translate(62,16)"/>
<path d="M0 0 C0.66 0.99 1.32 1.98 2 3 C1.01 4.485 1.01 4.485 0 6 C-0.99 6 -1.98 6 -3 6 C-3.33 7.32 -3.66 8.64 -4 10 C-4.66 9.67 -5.32 9.34 -6 9 C-4.02 6.03 -2.04 3.06 0 0 Z " fill="#2F75EF" transform="translate(11,16)"/>
<path d="M0 0 C0.99 0 1.98 0 3 0 C2.67 1.98 2.34 3.96 2 6 C0.68 6 -0.64 6 -2 6 C-1.125 1.125 -1.125 1.125 0 0 Z " fill="#2C75FA" transform="translate(236,60)"/>
<path d="M0 0 C0.66 0.33 1.32 0.66 2 1 C2 3.64 2 6.28 2 9 C1.01 8.67 0.02 8.34 -1 8 C-1.625 5.6875 -1.625 5.6875 -2 3 C-1.34 2.01 -0.68 1.02 0 0 Z " fill="#F5FFFF" transform="translate(15,44)"/>
<path d="M0 0 C1.65 0 3.3 0 5 0 C5 0.66 5 1.32 5 2 C7.97 2.495 7.97 2.495 11 3 C10.01 4.485 10.01 4.485 9 6 C5.56404834 4.47291037 2.88087546 2.40072955 0 0 Z " fill="#4681DB" transform="translate(39,17)"/>
<path d="M0 0 C0 0.66 0 1.32 0 2 C0.66 2.33 1.32 2.66 2 3 C-1 5 -1 5 -4 5 C-4 4.34 -4 3.68 -4 3 C-4.66 2.67 -5.32 2.34 -6 2 C-2.25 0 -2.25 0 0 0 Z " fill="#CDE4FC" transform="translate(75,56)"/>
<path d="M0 0 C4 4.75 4 4.75 4 7 C1.03 6.505 1.03 6.505 -2 6 C-1.34 4.02 -0.68 2.04 0 0 Z " fill="#538ACE" transform="translate(33,52)"/>
<path d="M0 0 C0.66666667 1.33333333 1.33333333 2.66666667 2 4 C2.391875 4.66 2.78375 5.32 3.1875 6 C4.17413108 8.42863035 3.86626039 9.57447091 3 12 C-1.06153846 6.83076923 -1.06153846 6.83076923 -0.75 2.625 C-0.5025 1.75875 -0.255 0.8925 0 0 Z " fill="#4281D7" transform="translate(37,45)"/>
<path d="M0 0 C0.33 0.66 0.66 1.32 1 2 C-2.51187196 4.40814077 -4.72656908 5.36629408 -9 5 C-7.694761 2.38952199 -6.64173426 2.31933577 -3.9375 1.375 C-3.20402344 1.11460938 -2.47054688 0.85421875 -1.71484375 0.5859375 C-1.14894531 0.39257812 -0.58304688 0.19921875 0 0 Z M-11 5 C-10.34 5.33 -9.68 5.66 -9 6 C-10.32 6.33 -11.64 6.66 -13 7 C-12.34 6.34 -11.68 5.68 -11 5 Z " fill="#3077E5" transform="translate(34,1)"/>
<path d="M0 0 C3.3 0 6.6 0 10 0 C10.33 0.66 10.66 1.32 11 2 C9.8553125 1.938125 9.8553125 1.938125 8.6875 1.875 C5.77281584 1.77919176 5.77281584 1.77919176 3 4 C2.01 2.68 1.02 1.36 0 0 Z " fill="#8AABDE" transform="translate(44,62)"/>
<path d="M0 0 C0.33 0 0.66 0 1 0 C1 1.65 1 3.3 1 5 C-1.31 5.33 -3.62 5.66 -6 6 C-4 4 -2 2 0 0 Z " fill="#3073EB" transform="translate(261,33)"/>
<path d="M0 0 C0.99 0 1.98 0 3 0 C3 1.32 3 2.64 3 4 C4.65 3.67 6.3 3.34 8 3 C8 3.66 8 4.32 8 5 C2.58461538 5.36923077 2.58461538 5.36923077 -0.375 3.5 C-0.91125 3.005 -1.4475 2.51 -2 2 C-1.34 1.34 -0.68 0.68 0 0 Z " fill="#C8DBF6" transform="translate(42,30)"/>
<path d="M0 0 C3.43927579 1.2419607 6.25207819 2.55740284 9 5 C9 5.66 9 6.32 9 7 C5.88626628 5.50079488 2.87771795 3.91847864 0 2 C0 1.34 0 0.68 0 0 Z " fill="#9BC2F0" transform="translate(36,20)"/>
<path d="M0 0 C1.94268841 2.91403262 3.46395304 5.85808576 5 9 C3.35 8.67 1.7 8.34 0 8 C0 5.36 0 2.72 0 0 Z " fill="#4284E6" transform="translate(24,70)"/>
<path d="M0 0 C0.66 0.66 1.32 1.32 2 2 C2.99 2.33 3.98 2.66 5 3 C2.525 4.485 2.525 4.485 0 6 C0 5.34 0 4.68 0 4 C-1.32 3.67 -2.64 3.34 -4 3 C-2.68 2.01 -1.36 1.02 0 0 Z " fill="#CDF1FE" transform="translate(42,72)"/>
<path d="M0 0 C1.32 0 2.64 0 4 0 C4 0.99 4 1.98 4 3 C4.99 3 5.98 3 7 3 C7 3.66 7 4.32 7 5 C4.03824877 4.38722388 2.61941217 3.74627478 0 2 C0 1.34 0 0.68 0 0 Z " fill="#4D7FDD" transform="translate(20,52)"/>
<path d="M0 0 C0.103125 0.639375 0.20625 1.27875 0.3125 1.9375 C0.539375 2.618125 0.76625 3.29875 1 4 C1.99 4.33 2.98 4.66 4 5 C4.33 5.99 4.66 6.98 5 8 C4.01 8 3.02 8 2 8 C-0.1519437 4.77208445 -0.20086443 3.71599191 0 0 Z " fill="#CDEDFE" transform="translate(13,48)"/>
<path d="M0 0 C2 2 2 2 2.125 5.125 C2.08375 6.07375 2.0425 7.0225 2 8 C1.01 8.495 1.01 8.495 0 9 C-1.125 2.25 -1.125 2.25 0 0 Z " fill="#2F74F4" transform="translate(254,40)"/>
<path d="M0 0 C3.57104439 1.87949705 5.54744301 3.17053157 7 7 C6.01 7 5.02 7 4 7 C3.566875 6.0409375 3.566875 6.0409375 3.125 5.0625 C2.17176549 2.84793921 2.17176549 2.84793921 0 2 C0 1.34 0 0.68 0 0 Z " fill="#3275EA" transform="translate(237,33)"/>
<path d="M0 0 C1.32 0 2.64 0 4 0 C4.33 0.99 4.66 1.98 5 3 C3.35 3.66 1.7 4.32 0 5 C0 3.35 0 1.7 0 0 Z " fill="#337EDD" transform="translate(16,34)"/>
</svg>
